<?xml version="1.0" standalone="no"?>
<!DOCTYPE svg PUBLIC "-//W3C//DTD SVG 20010904//EN"
 "http://www.w3.org/TR/2001/REC-SVG-20010904/DTD/svg10.dtd">
<svg version="1.0" xmlns="http://www.w3.org/2000/svg"
 width="24px" height="24px" viewBox="0 0 24 24px"
 preserveAspectRatio="xMidYMid meet">

<g
fill="#fff" stroke="none">
<path d="M2660 2806 l0 -134 -37 19 c-72 37 -159 18 -208 -44 l-28 -35 -21 32
c-43 63 -129 83 -199 46 -31 -17 -37 -17 -37 -5 0 12 -13 15 -60 15 l-60 0 0
-175 0 -175 60 0 60 0 0 109 c0 127 13 154 70 154 52 0 60 -20 60 -150 l0
-113 60 0 60 0 0 47 0 48 32 -39 c54 -66 141 -85 206 -46 39 24 42 24 42 5 0
-12 13 -15 60 -15 l60 0 0 50 0 51 32 -37 c43 -49 100 -74 168 -74 68 0 125
25 168 74 l32 37 0 -51 0 -50 59 0 59 0 4 104 c4 120 17 146 74 146 59 0 64
-6 64 -74 1 -143 125 -227 245 -166 47 24 45 24 45 5 0 -12 13 -15 60 -15 l60
0 0 175 0 175 -64 0 c-39 0 -66 -4 -68 -11 -3 -8 -14 -7 -35 5 -59 30 -140 16
-197 -33 -18 -15 -18 -15 -7 7 11 20 9 23 -16 33 -38 15 -100 5 -127 -20 -28
-26 -36 -26 -36 -1 0 18 -7 20 -60 20 l-60 0 0 -50 0 -51 -32 37 c-84 96 -235
100 -325 9 l-43 -42 0 168 0 169 -60 0 -60 0 0 -134z m-41 -211 c31 -16 41
-33 41 -71 0 -59 -56 -96 -110 -74 -66 27 -69 111 -5 148 27 15 41 15 74 -3z
m400 0 c31 -16 41 -33 41 -71 0 -59 -56 -96 -110 -74 -66 27 -69 111 -5 148
27 15 41 15 74 -3z m686 -15 c26 -27 25 -84 -3 -112 -50 -50 -134 -15 -134 56
0 77 81 110 137 56z"/>
<path d="M1220 2630 l0 -280 60 0 59 0 3 103 3 102 75 6 c86 6 129 25 162 71
19 28 23 45 23 110 0 71 -2 79 -30 109 -48 51 -80 59 -225 59 l-130 0 0 -280z
m242 150 c38 -47 11 -103 -56 -116 -60 -11 -66 -3 -66 77 l0 72 52 -5 c38 -4
57 -12 70 -28z"/>
<path d="M1685 2696 c-88 -39 -129 -158 -86 -251 44 -95 149 -134 229 -85 39
24 42 24 42 5 0 -12 13 -15 60 -15 l60 0 0 175 0 175 -60 0 c-45 0 -60 -4 -60
-14 0 -11 -8 -10 -37 5 -43 22 -105 24 -148 5z m144 -101 c31 -16 41 -33 41
-71 0 -59 -56 -96 -110 -74 -66 27 -69 111 -5 148 27 15 41 15 74 -3z"/>
<path d="M3914 2490 c-28 -11 -54 -48 -54 -78 0 -30 43 -72 74 -72 38 0 55 10
71 41 20 38 19 54 -7 83 -27 29 -55 38 -84 26z"/>
<path d="M1817 2263 c-4 -3 -7 -26 -7 -50 0 -44 0 -44 33 -41 30 3 32 6 34 43
0 22 -4 43 -10 47 -15 10 -42 10 -50 1z m43 -23 c0 -5 -7 -10 -15 -10 -8 0
-15 5 -15 10 0 6 7 10 15 10 8 0 15 -4 15 -10z m8 -42 c-7 -19 -38 -22 -38 -4
0 10 9 16 21 16 12 0 19 -5 17 -12z"/>
<path d="M2290 2221 c0 -50 1 -51 30 -51 36 0 42 12 32 60 -6 28 -13 36 -35
38 -26 3 -27 2 -27 -47z m50 19 c0 -5 -9 -10 -20 -10 -11 0 -20 5 -20 10 0 6
9 10 20 10 11 0 20 -4 20 -10z m0 -45 c0 -8 -9 -15 -20 -15 -11 0 -20 7 -20
15 0 8 9 15 20 15 11 0 20 -7 20 -15z"/>
<path d="M2962 2220 c0 -30 2 -47 5 -37 6 21 19 22 27 2 3 -8 11 -15 18 -15 8
0 6 6 -5 17 -15 16 -15 18 0 35 9 10 11 18 6 18 -6 0 -17 -7 -24 -17 -13 -15
-15 -13 -20 18 -5 27 -6 23 -7 -21z"/>
<path d="M3121 2265 c-1 -6 6 -20 14 -32 13 -18 13 -22 0 -33 -8 -7 -15 -17
-15 -23 0 -5 8 -3 19 7 16 15 19 15 31 1 7 -9 15 -13 18 -10 3 2 -1 12 -8 20
-10 12 -10 21 -1 43 12 26 12 26 -7 9 -18 -17 -20 -17 -35 5 -9 13 -16 18 -16
13z"/>
<path d="M1991 2212 c-1 -27 3 -35 22 -40 22 -6 22 -6 -3 -13 -22 -5 -23 -7
-7 -14 28 -12 47 13 46 59 -1 37 -2 38 -8 11 -3 -17 -13 -30 -21 -30 -8 0 -18
13 -21 30 l-7 30 -1 -33z"/>
<path d="M2460 2211 c0 -17 5 -33 10 -36 6 -4 10 6 10 24 0 20 6 31 18 34 10
3 6 5 -10 6 -25 1 -28 -3 -28 -28z"/>
<path d="M2614 2226 c-11 -28 1 -51 25 -51 28 0 47 25 38 49 -8 20 -56 21 -63
2z m50 -5 c9 -14 -4 -41 -19 -41 -18 0 -28 17 -21 35 6 17 32 20 40 6z"/>
<path d="M2785 2220 c-8 -27 12 -52 39 -48 16 2 21 10 21 33 0 25 -4 31 -27
33 -19 2 -28 -2 -33 -18z m53 -13 c4 -21 -27 -35 -38 -17 -12 19 0 42 19 38 9
-2 17 -11 19 -21z"/>
<path d="M2330 726 c0 -7 10 -21 23 -30 l22 -17 -22 5 c-13 2 -23 0 -23 -5 0
-13 38 -11 46 2 4 7 -3 20 -16 29 -22 17 -23 18 -4 23 16 4 16 5 -3 6 -14 1
-23 -5 -23 -13z"/>
<path d="M2400 705 c0 -19 5 -35 10 -35 6 0 10 16 10 35 0 19 -4 35 -10 35 -5
0 -10 -16 -10 -35z"/>
<path d="M2440 704 c0 -21 4 -33 10 -29 6 3 10 17 10 31 0 37 28 30 33 -8 4
-32 4 -32 5 5 2 35 0 37 -28 37 -28 0 -30 -3 -30 -36z"/>
<path d="M2534 726 c-14 -37 22 -74 47 -49 6 6 1 9 -13 9 -33 -1 -31 36 2 45
l25 7 -28 1 c-16 1 -30 -5 -33 -13z"/>
<path d="M2614 726 c-11 -29 1 -51 29 -54 15 -2 27 1 27 6 0 6 -8 8 -19 5 -10
-3 -22 0 -25 6 -5 7 3 11 19 11 20 0 26 4 23 18 -4 22 -46 29 -54 8z m46 -6
c0 -5 -7 -10 -15 -10 -8 0 -15 5 -15 10 0 6 7 10 15 10 8 0 15 -4 15 -10z"/>
<path d="M2357 633 c-13 -13 -7 -21 13 -16 11 3 20 1 20 -4 0 -6 -9 -22 -20
-36 -26 -33 -25 -37 8 -36 15 1 20 3 10 6 -15 4 -15 6 0 32 8 15 13 35 9 44
-6 17 -28 23 -40 10z"/>
<path d="M2444 632 c-36 -23 -20 -96 19 -90 17 2 23 11 25 36 5 45 -17 72 -44
54z m31 -47 c0 -43 -29 -40 -33 3 -3 28 0 33 15 30 13 -2 18 -12 18 -33z"/>
<path d="M2533 633 c-21 -8 -15 -22 7 -16 13 4 20 0 20 -9 0 -8 -9 -23 -20
-33 -28 -26 -25 -35 13 -34 17 1 24 3 15 6 -22 6 -22 8 -2 38 13 20 14 28 4
40 -13 16 -17 17 -37 8z"/>
<path d="M2600 630 c0 -5 7 -10 15 -10 8 0 18 0 22 -1 4 0 9 4 11 10 2 6 -8
11 -22 11 -14 0 -26 -4 -26 -10z"/>
<path d="M2615 600 c-4 -6 1 -10 9 -10 10 0 16 -9 16 -21 0 -16 -5 -20 -20
-16 -11 3 -20 1 -20 -4 0 -14 36 -11 49 5 6 7 9 20 5 29 -7 19 -31 29 -39 17z"/>
</g>
</svg>
